<?xml version="1.0" encoding="utf-8"?>
<!-- Generator: Adobe Illustrator 15.0.0, SVG Export Plug-In . SVG Version: 6.00 Build 0)  -->
<!DOCTYPE svg PUBLIC "-//W3C//DTD SVG 1.1//EN" "http://www.w3.org/Graphics/SVG/1.1/DTD/svg11.dtd">
<svg version="1.1" id="图层_1" xmlns="http://www.w3.org/2000/svg" xmlns:xlink="http://www.w3.org/1999/xlink" x="0px" y="0px"
	 width="1028px" height="680px" viewBox="0 0 1028 680" enable-background="new 0 0 1028 680" xml:space="preserve">
<image display="none" overflow="visible" width="998" height="719" xlink:href="悦荟一楼1.jpg"  transform="matrix(1.1196 0 0 1.1196 -59.686 -55.0005)">
</image>
<g>
	<polygon fill="#C9CACA" points="169.83,20.755 944.271,35.325 990.223,562.08 120.517,669.673 87.653,641.654 76.808,482.507 
		137.329,39.809 	"/>
	<polygon fill="#E47AAD" stroke="#C9CACA" stroke-width="2" stroke-miterlimit="10" points="190.939,137.228 223.477,115.042 
		297.428,115.042 297.428,97.294 341.059,97.294 341.059,24.083 171.711,19.646 137.694,38.874 127.341,114.303 175.409,117.261 	
		"/>
	<polygon fill="#F2DE89" stroke="#C9CACA" stroke-width="2" stroke-miterlimit="10" points="361.765,118 406.875,119.479 
		403.177,199.346 486.742,203.044 487.481,26.302 363.983,23.344 	"/>
	<polygon fill="#F2DE89" stroke="#C9CACA" stroke-width="2" stroke-miterlimit="10" points="337.361,144.623 404.656,146.102 
		403.177,199.346 336.622,198.607 	"/>
	<path fill="#F2DE89" stroke="#C9CACA" stroke-width="2" stroke-miterlimit="10" d="M550.339,207.481l2.959-180.44l-65.817-0.739
		l-0.739,176.742C486.742,203.044,535.55,201.565,550.339,207.481z"/>
	<path fill="#F2DE89" stroke="#C9CACA" stroke-width="2" stroke-miterlimit="10" d="M584.357,225.969l31.059-63.598l2.219-133.111
		l-64.337-2.219l-2.959,180.44C550.339,207.481,561.433,209.7,584.357,225.969z"/>
	<polygon fill="#F2DE89" stroke="#C9CACA" stroke-width="2" stroke-miterlimit="10" points="605.063,257.028 680.492,245.935 
		676.795,227.448 679.014,164.589 680.492,30 617.635,29.26 615.416,162.371 584.357,225.969 	"/>
	<polygon fill="#F2DE89" stroke="#C9CACA" stroke-width="2" stroke-miterlimit="10" points="693.064,355.382 740.393,350.205 
		730.779,278.474 750.006,276.995 741.872,204.522 741.872,169.026 679.014,164.589 676.795,227.448 680.492,245.935 	"/>
	<path fill="#BB9EC9" stroke="#C9CACA" stroke-width="2" stroke-miterlimit="10" d="M755.922,364.626l-114.254,13.312
		c0,0-12.202,4.437-9.983,12.201l27.731,211.869l201.886-24.403l-18.857-137.549l-24.404,2.219l-4.437-38.824l-37.715,4.437v-12.201
		l-15.53,2.219L755.922,364.626z"/>
	<polygon fill="#6BC7E9" stroke="#C9CACA" stroke-width="2" stroke-miterlimit="10" points="459.75,467.787 593.97,452.258 
		605.063,514.376 544.053,616.428 479.716,624.192 	"/>
	<path fill="#6BC7E9" stroke="#C9CACA" stroke-width="2" stroke-miterlimit="10" d="M453.648,404.005l75.43-11.093
		c0,0,52.135-9.429,66.001,40.488l-110.372,14.975l-4.992-43.261l-25.513,4.437L453.648,404.005z"/>
	<polygon fill="#6BC7E9" stroke="#C9CACA" stroke-width="2" stroke-miterlimit="10" points="393.749,491.637 461.968,483.316 
		479.716,624.192 410.387,634.177 	"/>
	<polygon fill="#6BC7E9" stroke="#C9CACA" stroke-width="2" stroke-miterlimit="10" points="385.983,410.66 425.917,406.778 
		434.236,485.535 393.749,491.637 	"/>
	<path fill="#6BC7E9" stroke="#C9CACA" stroke-width="2" stroke-miterlimit="10" d="M154.703,665.235
		c0,0-18.303-68.22,48.808-103.716s112.59,1.664,159.179-135.329c3.882-10.538,14.975-14.976,23.294-15.53l24.404,223.517
		L154.703,665.235z"/>
	<path fill="#A0D5C9" stroke="#C9CACA" stroke-width="2" stroke-miterlimit="10" d="M189.645,364.626l-95.396-9.983L76.5,482.208
		l7.21,138.103c0,0,26.068-65.446,95.396-80.421c69.329-14.976,99.833-32.724,113.145-67.11l-117.027,14.42L189.645,364.626z"/>
	<path fill="#E47AAD" stroke="#C9CACA" stroke-width="2" stroke-miterlimit="10" d="M313.697,300.659l29.95,41.042
		c0,0-3.328,34.757-22.185,37.346l-4.807-1.109l-1.849,4.437l-27.362-0.369v-10.354l-7.765-9.983l-39.933-6.655l3.328-29.95
		l32.168,3.697L313.697,300.659z"/>
	<polygon fill="#E47AAD" stroke="#C9CACA" stroke-width="2" stroke-miterlimit="10" points="303.344,287.717 245.662,213.397 
		204.62,244.826 197.225,303.247 270.805,312.491 	"/>
	<polygon fill="#E47AAD" stroke="#C9CACA" stroke-width="2" stroke-miterlimit="10" points="190.939,137.228 245.662,213.397 
		204.62,244.826 197.225,303.247 102.567,294.003 127.341,114.303 175.409,117.261 	"/>
	<path fill="#A0D5C9" stroke="#C9CACA" stroke-width="2" stroke-miterlimit="10" d="M385.983,410.66c0,0-11.647-0.555-23.294,15.53
		c0,0-20.521,84.858-78.203,109.262c-54.354,19.967-136.994,19.412-129.784,129.783L92.584,673l-8.875-52.689
		c0,0,28.841-63.782,89.85-79.313c61.009-15.529,97.718-21.03,118.691-68.219c10.803-24.307,11.093-60.455,11.093-60.455
		S336.622,420.089,385.983,410.66z"/>
</g>
</svg>
