<?xml version="1.0" encoding="utf-8"?>
<!-- Generator: Adobe Illustrator 15.0.0, SVG Export Plug-In . SVG Version: 6.00 Build 0)  -->
<!DOCTYPE svg PUBLIC "-//W3C//DTD SVG 1.1//EN" "http://www.w3.org/Graphics/SVG/1.1/DTD/svg11.dtd">
<svg version="1.1" id="图层_1" xmlns="http://www.w3.org/2000/svg" xmlns:xlink="http://www.w3.org/1999/xlink" x="0px" y="0px"
	 width="1028px" height="680px" viewBox="0 0 1028 680" enable-background="new 0 0 1028 680">
	 <g id="floor_1">
<polygon fill="#C9CACA" points="169.83,20.755 944.271,35.325 990.223,562.08 120.517,669.673 87.653,641.654 76.808,482.507 
	137.329,39.809 "/>
<polygon fill="#E47AAD" points="192.939,138.228 223.477,115.042 297.428,115.042 297.428,97.294 341.059,97.294 341.059,24.083 
	171.711,19.646 137.694,38.874 127.341,114.303 177.409,118.261 "/>
<polygon fill="#F2DE89" points="361.765,118 406.875,119.479 406.177,199.346 481.742,203.044 481.481,26.302 363.983,23.344 "/>
<polygon fill="#F2DE89" points="337.361,144.623 397.656,146.102 397.177,199.346 336.622,198.607 "/>
<path fill="#F2DE89" d="M544.339,207.481l2.959-180.44l-59.817-0.739l-0.739,176.742
	C486.742,203.044,529.55,201.565,544.339,207.481z"/>
<path fill="#F2DE89" d="M579.357,221.969l28.059-59.598l4.219-133.111l-58.337-2.219l-2.959,180.44
	C550.339,207.481,556.433,205.7,579.357,221.969z"/>
<polygon fill="#F2DE89" points="605.063,257.028 680.492,245.935 676.795,227.448 679.014,164.589 680.492,30 617.635,29.26 
	613.416,162.371 584.357,225.969 "/>
<polygon fill="#F2DE89" points="693.064,355.382 740.393,350.205 730.779,278.474 750.006,276.995 741.872,204.522 741.872,169.026 
	687.014,164.589 684.795,227.448 688.492,245.935 "/>
<path fill="#BB9EC9" d="M755.922,364.626l-114.254,13.312c0,0-12.202,4.437-9.983,12.201l27.731,211.869l201.886-24.403
	l-18.857-137.549l-24.404,2.219l-4.437-38.824l-37.715,4.437v-12.201l-15.53,2.219L755.922,364.626z"/>
<polygon fill="#6BC7E9" points="467.75,467.787 593.97,452.258 605.063,514.376 544.053,616.428 487.716,624.192 "/>
<path fill="#6BC7E9" d="M453.648,404.005l75.43-11.093c0,0,52.135-9.429,66.001,40.488l-110.372,14.975l-4.992-43.261l-25.513,4.437
	L453.648,404.005z"/>
<polygon fill="#6BC7E9" points="401.749,491.637 461.968,483.316 479.716,624.192 418.387,634.177 "/>
<polygon fill="#6BC7E9" points="390.983,410.66 425.917,406.778 434.236,480.535 401.749,486.637 "/>
<path fill="#6BC7E9" d="M167.703,662.235c0,0-22.303-58.22,44.808-93.716s116.59-8.336,163.179-145.329
	c3.882-10.538,2.975-14.976,11.294-15.53l24.404,223.517L167.703,662.235z"/>
<path fill="#A0D5C9" d="M189.645,364.626l-95.396-9.983L76.5,482.208l7.21,122.103c0,0,26.068-59.446,95.396-74.421
	C248.436,514.914,261,513,283.251,474.779l-108.027,12.42L189.645,364.626z"/>
<path fill="#E47AAD" d="M313.697,300.659l29.95,41.042c0,0-3.328,34.757-22.185,37.346l-4.807-1.109l-1.849,4.437l-27.362-0.369
	v-10.354l-7.765-9.983l-39.933-6.655l3.328-29.95l32.168,3.697L313.697,300.659z"/>
<polygon fill="#E47AAD" points="303.344,289.717 245.662,215.397 202.62,246.826 195.225,305.247 270.805,314.491 "/>
<polygon fill="#E47AAD" points="190.939,143.228 238.662,213.397 197.62,244.826 190.225,303.247 102.567,294.003 127.341,120.303 
	175.409,124.261 "/>
<path fill="#A0D5C9" d="M372.983,408.66c0,0-5.983,14.34-7.294,18.53c0,0-23.521,82.858-81.203,107.262
	c-54.354,19.967-136.994,20.412-129.784,130.783L92.584,673l-8.875-52.689c0,0,28.841-63.782,89.85-79.313
	c61.009-15.529,97.718-21.03,118.691-68.219c10.803-24.307,11.093-60.455,11.093-60.455S323.622,418.089,372.983,408.66z"/>
	</g>
</svg>
