<?xml version="1.0" encoding="utf-8"?>
<!-- Generator: Adobe Illustrator 16.0.0, SVG Export Plug-In . SVG Version: 6.00 Build 0)  -->
<!DOCTYPE svg PUBLIC "-//W3C//DTD SVG 1.1//EN" "http://www.w3.org/Graphics/SVG/1.1/DTD/svg11.dtd">
<svg version="1.1" id="图层_3" xmlns="http://www.w3.org/2000/svg" xmlns:xlink="http://www.w3.org/1999/xlink" x="0px" y="0px"
	 width="1033.2px" height="531px" viewBox="0 0 1033.2 531" enable-background="new 0 0 1033.2 531" xml:space="preserve">
<rect x="25.5" y="28" fill="#009944" width="113" height="113"/>
<path fill="#009944" d="M265.5,127c0,6.6-5.4,12-12,12h-87c-6.6,0-12-5.4-12-12V40c0-6.6,5.4-12,12-12h87c6.6,0,12,5.4,12,12V127z"
	/>
<ellipse fill="#009944" cx="311.3" cy="84.5" rx="32.3" ry="56.5"/>
<circle fill="#009944" cx="426" cy="85.5" r="57.5"/>
<polygon fill="#009944" points="532.3,138.8 501.5,85.5 532.3,32.2 593.9,32.2 624.6,85.5 593.9,138.8 "/>
<polygon fill="#009944" points="713.5,20.5 734,62 779.8,68.6 746.6,100.9 754.5,146.5 713.5,125 672.6,146.5 680.4,100.9 
	647.3,68.6 693.1,62 "/>
<polygon fill="#009944" points="813.5,44 813.5,120 905.5,139 929.5,100 973.5,83.5 973.5,32.2 869.5,20.5 "/>
<path fill="#009944" d="M25.5,189c0,0,252.3,1,173,76.5c-52,49.5-7.6-42.3-42.3-42.3s-62.8-7.3-62.8,62.8s-27.6,87.1-27.6,27.6
	S25.5,189,25.5,189z"/>
<path fill="#009944" d="M306.5,160c33-13,63,3,75,11s31,19,10,39s-9,85,6,107s15,15,39,0s-8-24-10.5-59s22.5-44,43.5-15s0,22,0,59
	s-43,64-158.3,34s-53.8-147-53.8-147S273.5,173,306.5,160z M288.7,215.9c5,26,13,27,33,35.5s8,29.5,0,34.5s5,29,15,15s21-43,9-58
	s-28-11-32-27s2-16-13-17S288.7,215.9,288.7,215.9z"/>
<g>
</g>
<g>
</g>
<g>
</g>
<g>
</g>
<g>
</g>
<g>
</g>
</svg>
