<?xml version="1.0" encoding="gbk"?>
<!-- Generator: Adobe Illustrator 16.0.0, SVG Export Plug-In . SVG Version: 6.00 Build 0)  -->
<!DOCTYPE svg PUBLIC "-//W3C//DTD SVG 1.1//EN" "http://www.w3.org/Graphics/SVG/1.1/DTD/svg11.dtd">
<svg version="1.1" id="Í¼²ã_1" xmlns="http://www.w3.org/2000/svg" xmlns:xlink="http://www.w3.org/1999/xlink" x="0px" y="0px"
	 width="1033.245px" height="531px" viewBox="0 0 1033.245 531" enable-background="new 0 0 1033.245 531" xml:space="preserve">
<polygon fill="#C9CACA" points="69.011,44.09 398.729,26.837 452.404,120.769 651.769,95.848 697.776,0 989.155,0 1033.245,360.39 808.96,483.076 429.4,531 59.426,460.072 0,120.769 "/>
<polygon fill="#D70051" points="324.663,477.572 421.084,255.123 689.751,241.538 787.449,457.195 431.317,500.328 "/>
<polygon fill="#2EA7E0" points="680.411,119.275 823.899,444.459 1007.293,345.122 969.085,24.183 721.165,28.428 "/>
<g>
	<polygon fill="#009944" points="42.781,132.86 88.629,80.22 379.002,62.39 421.084,136.684 280.513,467.383 91.177,428.326 	"/>
	<image overflow="visible" width="180" height="180" xlink:href="img/1.jpg"  transform="matrix(1.0252 0 0 1.0252 118.9028 123.3765)"></image>
</g>
</svg>
